<?xml version="1.0" encoding="UTF-8"?>
<!DOCTYPE svg PUBLIC "-//W3C//DTD SVG 1.1//EN" "http://www.w3.org/Graphics/SVG/1.1/DTD/svg11.dtd">
<!-- Creator: CorelDRAW 2017 -->
<svg xmlns="http://www.w3.org/2000/svg" xml:space="preserve" width="2958px" height="1664px" version="1.1" style="shape-rendering:geometricPrecision; text-rendering:geometricPrecision; image-rendering:optimizeQuality; fill-rule:evenodd; clip-rule:evenodd"
viewBox="0 0 2958 1664"
 xmlns:xlink="http://www.w3.org/1999/xlink"
 data-name="Layer 1">
 <defs>
  <style type="text/css">
   <![CDATA[
    .str0 {stroke:#E73273;stroke-width:29}
    .str1 {stroke:#F2F2F2;stroke-width:10}
    .fil9 {fill:none}
    .fil7 {fill:#23103C}
    .fil5 {fill:#23103C}
    .fil1 {fill:#3F3D56}
    .fil4 {fill:#575A89}
    .fil10 {fill:#D1D9EC}
    .fil11 {fill:#DFE6F5}
    .fil0 {fill:#E6D5E2}
    .fil8 {fill:#E73273}
    .fil3 {fill:#FFB9B9}
    .fil12 {fill:white}
    .fil2 {fill:black;fill-opacity:0.101961}
    .fil6 {fill:#23103C;fill-opacity:0.101961}
   ]]>
    .bg {
        animation: move 2s linear infinite, fade 0.5s linear infinite;
    }
   
   @keyframes fade {
    0% {
        opacity: 1;
    }
    100% {
        opacity: 0.8;
    }
   }
   @keyframes move {
	0% {
        transform: rotate(0deg) translateX(40px) rotate(0deg); 
    }
	100% {
        transform: rotate(360deg) translateX(40px) rotate(-360deg);
    }
   }
  </style>
    <clipPath id="id0">
     <path d="M867 60l1475 0 0 1537 -1475 0 0 -1537z"/>
    </clipPath>
 </defs>
 <g id="Layer_x0020_1">
  <metadata id="CorelCorpID_0Corel-Layer"/>
  <g id="_1433589076720">
   <g style="clip-path:url(#id0)">
    <image x="867" y="60" width="1475" height="1537" xlink:href="bionix_Images\bionix_ImgID1.png"/>
   </g>
  </g>
  <path class="fil0 bg" d="M2189 708c-76,-299 -339,-516 -648,-524 -163,-5 -335,50 -460,239 -224,339 14,573 179,684 80,54 152,119 214,192 112,133 327,297 583,39 186,-187 183,-431 132,-630z"/>
  <ellipse class="fil1" cx="1492" cy="1508" rx="689" ry="87"/>
  <path class="fil2" d="M2104 1492c0,-34 -274,-61 -612,-61 -338,0 -612,27 -612,61 0,34 274,61 612,61 338,0 612,-27 612,-61z"/>
  <rect class="fil1" x="1154" y="976" width="36" height="546"/>
  <polygon class="fil1" points="1474,961 1474,976 888,983 888,968 889,968 992,900 1427,900 "/>
  <path class="fil3" d="M1370 875c0,0 -129,11 -86,43 43,32 86,-22 86,-22l0 -22z"/>
  <polygon class="fil2" points="1474,962 1474,976 888,983 888,968 889,968 "/>
  <path class="fil4" d="M1564 699l3 -12c0,0 -43,76 -46,84 -4,7 -65,68 -72,79 -5,7 -11,13 -18,18l-68 0c0,0 -14,47 7,50 22,4 90,18 104,18 14,0 104,-83 104,-83l-14 -155z"/>
  <polygon class="fil1" points="1578,1220 1557,1522 1578,1522 1603,1213 "/>
  <polygon class="fil1" points="1840,1184 1819,1486 1840,1486 1866,1177 "/>
  <polygon class="fil1" points="1880,1220 1858,1522 1880,1522 1905,1213 "/>
  <polygon class="fil1" points="1546,1191 1524,1493 1546,1493 1571,1184 "/>
  <polygon class="fil1" points="1963,807 1902,1245 1539,1231 1541,1190 1546,1112 1826,1127 1873,807 "/>
  <path class="fil2" d="M1963 807l-61 438 -363 -14 2 -40c76,3 332,-13 332,-13 0,-57 50,-282 71,-370l19 0z"/>
  <path class="fil3" d="M1327 1339c0,0 -11,83 -32,97 -22,14 90,32 90,32l7 -108 -65 -22z"/>
  <path class="fil3" d="M1690 1375c0,0 18,22 22,36 4,14 57,22 57,22l40 -43c0,0 -50,-43 -65,-43 -14,0 -54,29 -54,29z"/>
  <circle class="fil3" cx="1594" cy="546" r="86"/>
  <path class="fil3" d="M1571 606c0,0 43,83 36,97 -7,14 93,-68 93,-68 0,0 -36,-58 -36,-75 0,-18 -93,47 -93,47z"/>
  <path class="fil5" d="M1610 1030c0,0 -277,-43 -287,57 -11,101 -50,230 -54,241 -4,11 119,72 133,50 14,-22 40,-194 32,-208 -7,-14 -11,-32 4,-29 14,4 172,36 205,25 32,-11 115,-155 115,-155l-147 18z"/>
  <path class="fil6" d="M1610 1030c0,0 -277,-43 -287,57 -11,101 -50,230 -54,241 -4,11 119,72 133,50 14,-22 40,-194 32,-208 -7,-14 -11,-32 4,-29 14,4 172,36 205,25 32,-11 115,-155 115,-155l-147 18z"/>
  <path class="fil7" d="M1603 1008l11 90c0,0 -172,65 -108,169 65,104 137,162 137,162 0,0 115,-65 115,-83 0,-18 -140,-119 -122,-119 18,0 277,-14 223,-158 -54,-144 -255,-61 -255,-61z"/>
  <path class="fil7" d="M1323 1439c0,0 -29,-32 -29,-25 0,7 -83,50 -97,54 -14,4 -36,11 -7,22 29,11 212,14 212,7 0,-7 7,-75 -7,-68 -14,7 -68,25 -72,11z"/>
  <path class="fil7" d="M1747 1414c0,0 -40,-11 -43,0 -4,11 -7,54 -40,68 -32,14 -43,36 0,40 43,4 162,-79 162,-93 0,-14 -14,-57 -22,-54 -7,4 -25,36 -58,40z"/>
  <rect class="fil1" x="1089" y="1461" width="165" height="65"/>
  <path class="fil4" d="M1700 613c0,0 -13,-36 -37,-14 -24,22 -71,75 -71,75 0,0 -29,11 -40,29 -11,18 -11,137 11,176 22,40 22,108 29,126 7,18 0,36 25,36 25,0 -14,-29 68,0 83,29 176,65 183,40 7,-25 -11,-40 0,-50 11,-11 0,-14 -7,-40 -7,-25 -14,-29 -18,-61 -4,-32 0,-65 -7,-79 -7,-14 -7,-36 -7,-72 0,-36 -22,-108 -61,-129 -40,-22 -68,-36 -68,-36z"/>
  <path class="fil7" d="M1510 450c20,-20 41,-40 68,-48 36,-11 75,1 106,22 7,5 13,10 17,17 4,6 5,14 6,21 4,26 7,52 5,78 -2,26 -10,52 -26,73 -14,-15 -25,-33 -32,-53 -2,-5 -3,-11 -7,-15 -4,-4 -10,-6 -15,-3 -6,4 -6,15 -12,19 -2,1 -3,1 -5,1 -1,0 -2,0 -3,0 -18,-3 -24,-25 -35,-38 -17,-20 -41,-19 -64,-25 -27,-7 -20,-32 -4,-48z"/>
  <path class="fil3" d="M1494 906c0,0 -119,-32 -129,-4 -10,27 102,52 102,52l47 0 -20 -48z"/>
  <path class="fil4" d="M1743 670c0,0 -54,40 -68,97 -14,57 -25,119 -25,119l-165 22c0,0 -14,58 7,61 22,4 183,14 208,0 25,-14 111,-194 108,-212 -4,-18 -11,-83 -65,-86z"/>
  <path class="fil10" d="M1099 926l58 5 83 -5 -1 0 -77 -7c-18,-6 -5,-45 -5,-45l-59 3 -5 0c-21,49 6,50 6,50z"/>
  <path class="fil2" d="M1099 926l58 5 83 -5 -1 0 -84 3 -56 -6c-16,-4 -7,-32 -1,-46l-5 0c-21,49 6,50 6,50z"/>
  <path class="fil7" d="M1002 577l17 254 0 31c1,8 4,21 12,21l14 -12 258 0c4,0 -10,-7 -11,-11l18 -9 -19 -186c-1,-6 -5,-11 -10,-13l-256 -89c-9,-3 -18,-2 -23,3 -4,3 -1,6 0,13z"/>
  <path class="fil11" d="M1015 835l2 34c1,8 7,14 15,14 0,0 0,0 0,0l5 0 269 -2c4,0 7,-3 7,-8 0,0 0,-1 0,-1l-2 -23 -296 -15z"/>
  <ellipse class="fil12" cx="1195" cy="863" rx="4" ry="7"/>
  <path class="fil10" d="M1064 934c0,0 -74,-28 -93,-8 0,0 -3,6 10,8l54 4c0,0 22,2 29,-4z"/>
  <path class="fil11" d="M1062 927c-14,-6 -58,-21 -86,-4 0,0 31,-3 48,6 17,10 40,5 40,5l0 -1c0,-1 1,-1 1,-2 0,-2 -1,-4 -3,-4l0 0z"/>
  <path class="fil11" d="M997 579l20 290c1,8 7,14 15,14 0,0 0,0 0,0l5 0c-4,-4 -7,-8 -9,-12 -3,-4 -20,-291 -21,-298 -1,-3 -2,-5 -4,-7 -4,3 -6,8 -6,12 0,1 0,1 0,2l0 0z"/>
  <path class="fil2" d="M997 579l20 290c1,8 7,14 15,14 0,0 0,0 0,0l5 0c-4,-4 -7,-8 -9,-12 -3,-4 -20,-291 -21,-298 -1,-3 -2,-5 -4,-7 -4,3 -6,8 -6,12 0,1 0,1 0,2l0 0z"/>
 </g>
</svg>
