<?xml version="1.0" encoding="UTF-8"?>
<!DOCTYPE svg PUBLIC "-//W3C//DTD SVG 1.1//EN" "http://www.w3.org/Graphics/SVG/1.1/DTD/svg11.dtd">
<!-- Creator: CorelDRAW 2017 -->
<svg xmlns="http://www.w3.org/2000/svg" xml:space="preserve" width="162.56mm" height="91.4398mm" version="1.1" style="shape-rendering:geometricPrecision; text-rendering:geometricPrecision; image-rendering:optimizeQuality; fill-rule:evenodd; clip-rule:evenodd"
viewBox="0 0 16256 9144"
 xmlns:xlink="http://www.w3.org/1999/xlink">
 <defs>
  <style type="text/css">
   <![CDATA[
    .fil0 {fill:#080E24}
    .fil1 {fill: #E5D3E2}
   ]]>
  </style>
 </defs>
 <g id="Layer_x0020_1">
  <metadata id="CorelCorpID_0Corel-Layer"/>
  <rect class="fil0" width="16256" height="9144"/>
  <g id="_2454738413504">
   <path class="fil1" d="M12032 1686c10,0 17,8 17,17 0,10 -8,17 -17,17 -10,0 -17,-8 -17,-17 0,-10 8,-17 17,-17z"/>
   <path class="fil1" d="M11070 4460c10,0 17,8 17,17 0,10 -8,17 -17,17 -10,0 -17,-8 -17,-17 0,-10 8,-17 17,-17z"/>
   <path class="fil1" d="M9680 3526c18,0 33,15 33,33 0,18 -15,33 -33,33 -18,0 -33,-15 -33,-33 0,-18 15,-33 33,-33z"/>
   <path class="fil1" d="M10973 3685c18,0 33,15 33,33 0,18 -15,33 -33,33 -18,0 -33,-15 -33,-33 0,-18 15,-33 33,-33z"/>
   <path class="fil1" d="M8889 1743c18,0 33,15 33,33 0,18 -15,33 -33,33 -18,0 -33,-15 -33,-33 0,-18 15,-33 33,-33z"/>
   <path class="fil1" d="M11013 2062c18,0 33,15 33,33 0,18 -15,33 -33,33 -18,0 -33,-15 -33,-33 0,-18 15,-33 33,-33z"/>
   <path class="fil1" d="M8458 4004c18,0 33,15 33,33 0,18 -15,33 -33,33 -18,0 -33,-15 -33,-33 0,-18 15,-33 33,-33z"/>
   <path class="fil1" d="M10742 5301c13,0 24,11 24,24 0,13 -11,24 -24,24 -13,0 -24,-11 -24,-24 0,-13 11,-24 24,-24z"/>
   <path class="fil1" d="M9455 3130c25,0 45,20 45,45 0,25 -20,45 -45,45 -25,0 -45,-20 -45,-45 0,-25 20,-45 45,-45z"/>
   <path class="fil1" d="M14762 0c18,0 32,14 32,32 0,18 -14,32 -32,32 -18,0 -32,-14 -32,-32 0,-18 14,-32 32,-32z"/>
   <path class="fil1" d="M16256 2385c-7,-6 -12,-15 -12,-25 0,-10 5,-19 12,-25l0 50z"/>
   <path class="fil1" d="M14782 1448c34,0 61,27 61,61 0,34 -27,61 -61,61 -34,0 -61,-27 -61,-61 0,-34 27,-61 61,-61z"/>
   <path class="fil1" d="M12236 2414c18,0 32,14 32,32 0,18 -14,32 -32,32 -18,0 -32,-14 -32,-32 0,-18 14,-32 32,-32z"/>
   <path class="fil1" d="M15818 3017c18,0 32,14 32,32 0,18 -14,32 -32,32 -18,0 -32,-14 -32,-32 0,-18 14,-32 32,-32z"/>
  </g>
  <g id="_2454738408704">
   <path class="fil1" d="M3661 2428c10,0 17,8 17,17 0,10 -8,17 -17,17 -10,0 -17,-8 -17,-17 0,-10 8,-17 17,-17z"/>
   <path class="fil1" d="M2271 1494c18,0 33,15 33,33 0,18 -15,33 -33,33 -18,0 -33,-15 -33,-33 0,-18 15,-33 33,-33z"/>
   <path class="fil1" d="M3564 1653c18,0 33,15 33,33 0,18 -15,33 -33,33 -18,0 -33,-15 -33,-33 0,-18 15,-33 33,-33z"/>
   <path class="fil1" d="M3604 30c18,0 33,15 33,33 0,18 -15,33 -33,33 -18,0 -33,-15 -33,-33 0,-18 15,-33 33,-33z"/>
   <path class="fil1" d="M1049 1972c18,0 33,15 33,33 0,18 -15,33 -33,33 -18,0 -33,-15 -33,-33 0,-18 15,-33 33,-33z"/>
   <path class="fil1" d="M3332 3269c13,0 24,11 24,24 0,13 -11,24 -24,24 -13,0 -24,-11 -24,-24 0,-13 11,-24 24,-24z"/>
   <path class="fil1" d="M2046 1098c25,0 45,20 45,45 0,25 -20,45 -45,45 -25,0 -45,-20 -45,-45 0,-25 20,-45 45,-45z"/>
   <path class="fil1" d="M10734 3253c18,0 32,14 32,32 0,18 -14,32 -32,32 -18,0 -32,-14 -32,-32 0,-18 14,-32 32,-32z"/>
   <path class="fil1" d="M10574 2129c34,0 61,27 61,61 0,34 -27,61 -61,61 -34,0 -61,-27 -61,-61 0,-34 27,-61 61,-61z"/>
   <path class="fil1" d="M8867 296c18,0 32,14 32,32 0,18 -14,32 -32,32 -18,0 -32,-14 -32,-32 0,-18 14,-32 32,-32z"/>
   <path class="fil1" d="M11016 955c34,0 61,27 61,61 0,34 -27,61 -61,61 -34,0 -61,-27 -61,-61 0,-34 27,-61 61,-61z"/>
   <path class="fil1" d="M4826 382c18,0 32,14 32,32 0,18 -14,32 -32,32 -18,0 -32,-14 -32,-32 0,-18 14,-32 32,-32z"/>
   <path class="fil1" d="M8409 985c18,0 32,14 32,32 0,18 -14,32 -32,32 -18,0 -32,-14 -32,-32 0,-18 14,-32 32,-32z"/>
   <path class="fil1" d="M11863 1738c18,0 32,14 32,32 0,18 -14,32 -32,32 -18,0 -32,-14 -32,-32 0,-18 14,-32 32,-32z"/>
   <path class="fil1" d="M9680 2005c34,0 61,27 61,61 0,34 -27,61 -61,61 -34,0 -61,-27 -61,-61 0,-34 27,-61 61,-61z"/>
  </g>
  <g id="_2454738401120">
   <circle class="fil1" cx="6288" cy="4930" r="17"/>
   <circle class="fil1" cx="5326" cy="7705" r="17"/>
   <circle class="fil1" cx="3936" cy="6786" r="33"/>
   <circle class="fil1" cx="5229" cy="6945" r="33"/>
   <circle class="fil1" cx="3145" cy="5003" r="33"/>
   <circle class="fil1" cx="5269" cy="5322" r="33"/>
   <circle class="fil1" cx="2715" cy="7264" r="33"/>
   <circle class="fil1" cx="4998" cy="8552" r="24"/>
   <circle class="fil1" cx="3711" cy="6403" r="45"/>
   <circle class="fil1" cx="12907" cy="4824" r="32"/>
   <circle class="fil1" cx="12399" cy="8544" r="32"/>
   <circle class="fil1" cx="12239" cy="7449" r="61"/>
   <circle class="fil1" cx="9018" cy="3259" r="32"/>
   <circle class="fil1" cx="10532" cy="5588" r="32"/>
   <circle class="fil1" cx="12600" cy="3862" r="32"/>
   <circle class="fil1" cx="9038" cy="4736" r="61"/>
   <circle class="fil1" cx="12681" cy="6275" r="61"/>
   <circle class="fil1" cx="6492" cy="5674" r="32"/>
   <circle class="fil1" cx="10074" cy="6276" r="32"/>
   <circle class="fil1" cx="13528" cy="7029" r="32"/>
   <circle class="fil1" cx="11345" cy="7326" r="61"/>
  </g>
 </g>
</svg>
