<?xml version="1.0" encoding="UTF-8"?>
<!DOCTYPE svg PUBLIC "-//W3C//DTD SVG 1.1//EN" "http://www.w3.org/Graphics/SVG/1.1/DTD/svg11.dtd">
<!-- Creator: CorelDRAW 2017 -->
<svg xmlns="http://www.w3.org/2000/svg" xml:space="preserve" width="162.56mm" height="91.4398mm" version="1.1" style="shape-rendering:geometricPrecision; text-rendering:geometricPrecision; image-rendering:optimizeQuality; fill-rule:evenodd; clip-rule:evenodd"
viewBox="0 0 16256 9144"
 xmlns:xlink="http://www.w3.org/1999/xlink">
 <defs>
  <style type="text/css">
   <![CDATA[
    .fil0 {fill:#080E24}
    .fil1 {fill:#E6D5E2}
   ]]>
  </style>
    <clipPath id="id0">
     <path d="M12930 6618l1074 0 0 1076 -1074 0 0 -1076z"/>
    </clipPath>
    <clipPath id="id1">
     <path d="M15019 2586l77 0 0 77 -77 0 0 -77z"/>
    </clipPath>
    <clipPath id="id2">
     <path d="M14511 6306l77 0 0 77 -77 0 0 -77z"/>
    </clipPath>
    <clipPath id="id3">
     <path d="M14316 5177l147 0 0 147 -147 0 0 -147z"/>
    </clipPath>
    <clipPath id="id4">
     <path d="M12644 3350l77 0 0 77 -77 0 0 -77z"/>
    </clipPath>
    <clipPath id="id5">
     <path d="M14712 1624l77 0 0 77 -77 0 0 -77z"/>
    </clipPath>
    <clipPath id="id6">
     <path d="M14758 4002l147 0 0 147 -147 0 0 -147z"/>
    </clipPath>
    <clipPath id="id7">
     <path d="M12186 4038l77 0 0 77 -77 0 0 -77z"/>
    </clipPath>
    <clipPath id="id8">
     <path d="M15640 4791l77 0 0 77 -77 0 0 -77z"/>
    </clipPath>
    <clipPath id="id9">
     <path d="M13422 5053l147 0 0 147 -147 0 0 -147z"/>
    </clipPath>
    <clipPath id="id10">
     <path d="M3367 1871l77 0 0 77 -77 0 0 -77z"/>
    </clipPath>
    <clipPath id="id11">
     <path d="M2858 6227l77 0 0 77 -77 0 0 -77z"/>
    </clipPath>
    <clipPath id="id12">
     <path d="M2663 5097l147 0 0 147 -147 0 0 -147z"/>
    </clipPath>
    <clipPath id="id13">
     <path d="M991 2635l77 0 0 77 -77 0 0 -77z"/>
    </clipPath>
    <clipPath id="id14">
     <path d="M3059 909l77 0 0 77 -77 0 0 -77z"/>
    </clipPath>
    <clipPath id="id15">
     <path d="M1850 3713l147 0 0 147 -147 0 0 -147z"/>
    </clipPath>
    <clipPath id="id16">
     <path d="M533 3323l77 0 0 77 -77 0 0 -77z"/>
    </clipPath>
    <clipPath id="id17">
     <path d="M3987 4076l77 0 0 77 -77 0 0 -77z"/>
    </clipPath>
    <clipPath id="id18">
     <path d="M1770 4973l147 0 0 147 -147 0 0 -147z"/>
    </clipPath>
    <clipPath id="id19">
     <path d="M3149 3699l77 0 0 77 -77 0 0 -77z"/>
    </clipPath>
    <clipPath id="id20">
     <path d="M2641 8055l77 0 0 77 -77 0 0 -77z"/>
    </clipPath>
    <clipPath id="id21">
     <path d="M2446 6925l147 0 0 147 -147 0 0 -147z"/>
    </clipPath>
    <clipPath id="id22">
     <path d="M774 5099l77 0 0 77 -77 0 0 -77z"/>
    </clipPath>
    <clipPath id="id23">
     <path d="M2842 2737l77 0 0 77 -77 0 0 -77z"/>
    </clipPath>
    <clipPath id="id24">
     <path d="M2889 5751l147 0 0 147 -147 0 0 -147z"/>
    </clipPath>
    <clipPath id="id25">
     <path d="M316 5787l77 0 0 77 -77 0 0 -77z"/>
    </clipPath>
    <clipPath id="id26">
     <path d="M3770 6540l77 0 0 77 -77 0 0 -77z"/>
    </clipPath>
    <clipPath id="id27">
     <path d="M1553 6802l147 0 0 147 -147 0 0 -147z"/>
    </clipPath>
    <clipPath id="id28">
     <path d="M2696 1375l147 0 0 147 -147 0 0 -147z"/>
    </clipPath>
    <clipPath id="id29">
     <path d="M1803 1251l147 0 0 147 -147 0 0 -147z"/>
    </clipPath>
    <clipPath id="id30">
     <path d="M807 1377l77 0 0 77 -77 0 0 -77z"/>
    </clipPath>
    <clipPath id="id31">
     <path d="M3252 3036l147 0 0 147 -147 0 0 -147z"/>
    </clipPath>
    <clipPath id="id32">
     <path d="M349 2065l77 0 0 77 -77 0 0 -77z"/>
    </clipPath>
    <clipPath id="id33">
     <path d="M7087 1022l77 0 0 77 -77 0 0 -77z"/>
    </clipPath>
    <clipPath id="id34">
     <path d="M6629 1710l77 0 0 77 -77 0 0 -77z"/>
    </clipPath>
    <clipPath id="id35">
     <path d="M10093 2525l77 0 0 77 -77 0 0 -77z"/>
    </clipPath>
    <clipPath id="id36">
     <path d="M8938 1124l77 0 0 77 -77 0 0 -77z"/>
    </clipPath>
    <clipPath id="id37">
     <path d="M9348 1423l147 0 0 147 -147 0 0 -147z"/>
    </clipPath>
    <clipPath id="id38">
     <path d="M6445 452l77 0 0 77 -77 0 0 -77z"/>
    </clipPath>
    <clipPath id="id39">
     <path d="M11684 1185l147 0 0 147 -147 0 0 -147z"/>
    </clipPath>
    <clipPath id="id40">
     <path d="M13092 1325l147 0 0 147 -147 0 0 -147z"/>
    </clipPath>
    <clipPath id="id41">
     <path d="M13377 2879l147 0 0 147 -147 0 0 -147z"/>
    </clipPath>
    <clipPath id="id42">
     <path d="M15240 1185l147 0 0 147 -147 0 0 -147z"/>
    </clipPath>
 </defs>
 <g id="Layer_x0020_1">
  <metadata id="CorelCorpID_0Corel-Layer"/>
  <rect class="fil0" width="16256" height="9144"/>
  <g id="_2454691400736">
   <g style="clip-path:url(#id0)">
    <image x="12930" y="6618" width="1074" height="1076" xlink:href="section about_Images\section about_ImgID1.png"/>
   </g>
  </g>
  <path class="fil1" d="M13020 7121c17,-232 211,-414 447,-414 236,0 430,183 447,414l-894 0zm895 56c-2,44 -10,85 -24,125l-847 0c-14,-39 -22,-81 -24,-125l895 0zm-48 181c-19,37 -42,71 -70,101l-660 0c-28,-30 -51,-64 -70,-101l800 0zm-132 157c-75,56 -167,89 -268,89 -100,0 -193,-33 -268,-89l536 0z"/>
  <g id="_2454691400768">
   <g style="clip-path:url(#id1)">
    <image x="15019" y="2586" width="77" height="77" xlink:href="section about_Images\section about_ImgID2.png"/>
   </g>
  </g>
  <path class="fil1" d="M15058 2593c18,0 32,14 32,32 0,18 -14,32 -32,32 -18,0 -32,-14 -32,-32 0,-18 14,-32 32,-32z"/>
  <g id="_2454691399424">
   <g style="clip-path:url(#id2)">
    <image x="14511" y="6306" width="77" height="77" xlink:href="section about_Images\section about_ImgID3.png"/>
   </g>
  </g>
  <path class="fil1" d="M14549 6313c18,0 32,14 32,32 0,18 -14,32 -32,32 -18,0 -32,-14 -32,-32 0,-18 14,-32 32,-32z"/>
  <g id="_2454691400000">
   <g style="clip-path:url(#id3)">
    <image x="14316" y="5177" width="147" height="147" xlink:href="section about_Images\section about_ImgID4.png"/>
   </g>
  </g>
  <path class="fil1" d="M14389 5189c34,0 61,27 61,61 0,34 -27,61 -61,61 -34,0 -61,-27 -61,-61 0,-34 27,-61 61,-61z"/>
  <g id="_2454691399680">
   <g style="clip-path:url(#id4)">
    <image x="12644" y="3350" width="77" height="77" xlink:href="section about_Images\section about_ImgID5.png"/>
   </g>
  </g>
  <path class="fil1" d="M12682 3356c18,0 32,14 32,32 0,18 -14,32 -32,32 -18,0 -32,-14 -32,-32 0,-18 14,-32 32,-32z"/>
  <g id="_2454691397152">
   <g style="clip-path:url(#id5)">
    <image x="14712" y="1624" width="77" height="77" xlink:href="section about_Images\section about_ImgID6.png"/>
   </g>
  </g>
  <path class="fil1" d="M14750 1630c18,0 32,14 32,32 0,18 -14,32 -32,32 -18,0 -32,-14 -32,-32 0,-18 14,-32 32,-32z"/>
  <g id="_2454691397088">
   <g style="clip-path:url(#id6)">
    <image x="14758" y="4002" width="147" height="147" xlink:href="section about_Images\section about_ImgID7.png"/>
   </g>
  </g>
  <path class="fil1" d="M14832 4015c34,0 61,27 61,61 0,34 -27,61 -61,61 -34,0 -61,-27 -61,-61 0,-34 27,-61 61,-61z"/>
  <g id="_2454691394752">
   <g style="clip-path:url(#id7)">
    <image x="12186" y="4038" width="77" height="77" xlink:href="section about_Images\section about_ImgID8.png"/>
   </g>
  </g>
  <path class="fil1" d="M12224 4045c18,0 32,14 32,32 0,18 -14,32 -32,32 -18,0 -32,-14 -32,-32 0,-18 14,-32 32,-32z"/>
  <g id="_2454691394720">
   <g style="clip-path:url(#id8)">
    <image x="15640" y="4791" width="77" height="77" xlink:href="section about_Images\section about_ImgID9.png"/>
   </g>
  </g>
  <path class="fil1" d="M15678 4797c18,0 32,14 32,32 0,18 -14,32 -32,32 -18,0 -32,-14 -32,-32 0,-18 14,-32 32,-32z"/>
  <g id="_2454691393280">
   <g style="clip-path:url(#id9)">
    <image x="13422" y="5053" width="147" height="147" xlink:href="section about_Images\section about_ImgID10.png"/>
   </g>
  </g>
  <path class="fil1" d="M13496 5065c34,0 61,27 61,61 0,34 -27,61 -61,61 -34,0 -61,-27 -61,-61 0,-34 27,-61 61,-61z"/>
  <g id="_2454691392032">
   <g style="clip-path:url(#id10)">
    <image x="3367" y="1871" width="77" height="77" xlink:href="section about_Images\section about_ImgID11.png"/>
   </g>
  </g>
  <path class="fil1" d="M3405 1877c18,0 32,14 32,32 0,18 -14,32 -32,32 -18,0 -32,-14 -32,-32 0,-18 14,-32 32,-32z"/>
  <g id="_2454691389984">
   <g style="clip-path:url(#id11)">
    <image x="2858" y="6227" width="77" height="77" xlink:href="section about_Images\section about_ImgID12.png"/>
   </g>
  </g>
  <path class="fil1" d="M2897 6233c18,0 32,14 32,32 0,18 -14,32 -32,32 -18,0 -32,-14 -32,-32 0,-18 14,-32 32,-32z"/>
  <g id="_2454691457728">
   <g style="clip-path:url(#id12)">
    <image x="2663" y="5097" width="147" height="147" xlink:href="section about_Images\section about_ImgID13.png"/>
   </g>
  </g>
  <path class="fil1" d="M2737 5109c34,0 61,27 61,61 0,34 -27,61 -61,61 -34,0 -61,-27 -61,-61 0,-34 27,-61 61,-61z"/>
  <g id="_2454691456992">
   <g style="clip-path:url(#id13)">
    <image x="991" y="2635" width="77" height="77" xlink:href="section about_Images\section about_ImgID14.png"/>
   </g>
  </g>
  <path class="fil1" d="M1030 2641c18,0 32,14 32,32 0,18 -14,32 -32,32 -18,0 -32,-14 -32,-32 0,-18 14,-32 32,-32z"/>
  <g id="_2454691452032">
   <g style="clip-path:url(#id14)">
    <image x="3059" y="909" width="77" height="77" xlink:href="section about_Images\section about_ImgID15.png"/>
   </g>
  </g>
  <path class="fil1" d="M3098 915c18,0 32,14 32,32 0,18 -14,32 -32,32 -18,0 -32,-14 -32,-32 0,-18 14,-32 32,-32z"/>
  <g id="_2454691453216">
   <g style="clip-path:url(#id15)">
    <image x="1850" y="3713" width="147" height="147" xlink:href="section about_Images\section about_ImgID16.png"/>
   </g>
  </g>
  <path class="fil1" d="M1924 3725c34,0 61,27 61,61 0,34 -27,61 -61,61 -34,0 -61,-27 -61,-61 0,-34 27,-61 61,-61z"/>
  <g id="_2454691450528">
   <g style="clip-path:url(#id16)">
    <image x="533" y="3323" width="77" height="77" xlink:href="section about_Images\section about_ImgID17.png"/>
   </g>
  </g>
  <path class="fil1" d="M571 3329c18,0 32,14 32,32 0,18 -14,32 -32,32 -18,0 -32,-14 -32,-32 0,-18 14,-32 32,-32z"/>
  <g id="_2454691449600">
   <g style="clip-path:url(#id17)">
    <image x="3987" y="4076" width="77" height="77" xlink:href="section about_Images\section about_ImgID18.png"/>
   </g>
  </g>
  <path class="fil1" d="M4026 4082c18,0 32,14 32,32 0,18 -14,32 -32,32 -18,0 -32,-14 -32,-32 0,-18 14,-32 32,-32z"/>
  <g id="_2454691448000">
   <g style="clip-path:url(#id18)">
    <image x="1770" y="4973" width="147" height="147" xlink:href="section about_Images\section about_ImgID19.png"/>
   </g>
  </g>
  <path class="fil1" d="M1843 4986c34,0 61,27 61,61 0,34 -27,61 -61,61 -34,0 -61,-27 -61,-61 0,-34 27,-61 61,-61z"/>
  <g id="_2454691446528">
   <g style="clip-path:url(#id19)">
    <image x="3149" y="3699" width="77" height="77" xlink:href="section about_Images\section about_ImgID20.png"/>
   </g>
  </g>
  <path class="fil1" d="M3188 3705c18,0 32,14 32,32 0,18 -14,32 -32,32 -18,0 -32,-14 -32,-32 0,-18 14,-32 32,-32z"/>
  <g id="_2454691443904">
   <g style="clip-path:url(#id20)">
    <image x="2641" y="8055" width="77" height="77" xlink:href="section about_Images\section about_ImgID21.png"/>
   </g>
  </g>
  <path class="fil1" d="M2680 8062c18,0 32,14 32,32 0,18 -14,32 -32,32 -18,0 -32,-14 -32,-32 0,-18 14,-32 32,-32z"/>
  <g id="_2454691442528">
   <g style="clip-path:url(#id21)">
    <image x="2446" y="6925" width="147" height="147" xlink:href="section about_Images\section about_ImgID22.png"/>
   </g>
  </g>
  <path class="fil1" d="M2520 6938c34,0 61,27 61,61 0,34 -27,61 -61,61 -34,0 -61,-27 -61,-61 0,-34 27,-61 61,-61z"/>
  <g id="_2454691441472">
   <g style="clip-path:url(#id22)">
    <image x="774" y="5099" width="77" height="77" xlink:href="section about_Images\section about_ImgID23.png"/>
   </g>
  </g>
  <path class="fil1" d="M812 5105c18,0 32,14 32,32 0,18 -14,32 -32,32 -18,0 -32,-14 -32,-32 0,-18 14,-32 32,-32z"/>
  <g id="_2454691440992">
   <g style="clip-path:url(#id23)">
    <image x="2842" y="2737" width="77" height="77" xlink:href="section about_Images\section about_ImgID24.png"/>
   </g>
  </g>
  <path class="fil1" d="M2880 2743c18,0 32,14 32,32 0,18 -14,32 -32,32 -18,0 -32,-14 -32,-32 0,-18 14,-32 32,-32z"/>
  <g id="_2454691438176">
   <g style="clip-path:url(#id24)">
    <image x="2889" y="5751" width="147" height="147" xlink:href="section about_Images\section about_ImgID25.png"/>
   </g>
  </g>
  <path class="fil1" d="M2962 5763c34,0 61,27 61,61 0,34 -27,61 -61,61 -34,0 -61,-27 -61,-61 0,-34 27,-61 61,-61z"/>
  <g id="_2454691438464">
   <g style="clip-path:url(#id25)">
    <image x="316" y="5787" width="77" height="77" xlink:href="section about_Images\section about_ImgID26.png"/>
   </g>
  </g>
  <path class="fil1" d="M354 5793c18,0 32,14 32,32 0,18 -14,32 -32,32 -18,0 -32,-14 -32,-32 0,-18 14,-32 32,-32z"/>
  <g id="_2454691434816">
   <g style="clip-path:url(#id26)">
    <image x="3770" y="6540" width="77" height="77" xlink:href="section about_Images\section about_ImgID27.png"/>
   </g>
  </g>
  <path class="fil1" d="M3808 6546c18,0 32,14 32,32 0,18 -14,32 -32,32 -18,0 -32,-14 -32,-32 0,-18 14,-32 32,-32z"/>
  <g id="_2454588406784">
   <g style="clip-path:url(#id27)">
    <image x="1553" y="6802" width="147" height="147" xlink:href="section about_Images\section about_ImgID28.png"/>
   </g>
  </g>
  <path class="fil1" d="M1626 6814c34,0 61,27 61,61 0,34 -27,61 -61,61 -34,0 -61,-27 -61,-61 0,-34 27,-61 61,-61z"/>
  <g id="_2454588404000">
   <g style="clip-path:url(#id28)">
    <image x="2696" y="1375" width="147" height="147" xlink:href="section about_Images\section about_ImgID29.png"/>
   </g>
  </g>
  <path class="fil1" d="M2770 1387c34,0 61,27 61,61 0,34 -27,61 -61,61 -34,0 -61,-27 -61,-61 0,-34 27,-61 61,-61z"/>
  <g id="_2454588400960">
   <g style="clip-path:url(#id29)">
    <image x="1803" y="1251" width="147" height="147" xlink:href="section about_Images\section about_ImgID30.png"/>
   </g>
  </g>
  <path class="fil1" d="M1876 1264c34,0 61,27 61,61 0,34 -27,61 -61,61 -34,0 -61,-27 -61,-61 0,-34 27,-61 61,-61z"/>
  <g id="_2454588398592">
   <g style="clip-path:url(#id30)">
    <image x="807" y="1377" width="77" height="77" xlink:href="section about_Images\section about_ImgID31.png"/>
   </g>
  </g>
  <path class="fil1" d="M845 1383c18,0 32,14 32,32 0,18 -14,32 -32,32 -18,0 -32,-14 -32,-32 0,-18 14,-32 32,-32z"/>
  <g id="_2454588393376">
   <g style="clip-path:url(#id31)">
    <image x="3252" y="3036" width="147" height="147" xlink:href="section about_Images\section about_ImgID32.png"/>
   </g>
  </g>
  <path class="fil1" d="M3326 3048c34,0 61,27 61,61 0,34 -27,61 -61,61 -34,0 -61,-27 -61,-61 0,-34 27,-61 61,-61z"/>
  <g id="_2454588417888">
   <g style="clip-path:url(#id32)">
    <image x="349" y="2065" width="77" height="77" xlink:href="section about_Images\section about_ImgID33.png"/>
   </g>
  </g>
  <path class="fil1" d="M387 2071c18,0 32,14 32,32 0,18 -14,32 -32,32 -18,0 -32,-14 -32,-32 0,-18 14,-32 32,-32z"/>
  <g id="_2454588415808">
   <g style="clip-path:url(#id33)">
    <image x="7087" y="1022" width="77" height="77" xlink:href="section about_Images\section about_ImgID34.png"/>
   </g>
  </g>
  <path class="fil1" d="M7126 1028c18,0 32,14 32,32 0,18 -14,32 -32,32 -18,0 -32,-14 -32,-32 0,-18 14,-32 32,-32z"/>
  <g id="_2454588412128">
   <g style="clip-path:url(#id34)">
    <image x="6629" y="1710" width="77" height="77" xlink:href="section about_Images\section about_ImgID35.png"/>
   </g>
  </g>
  <path class="fil1" d="M6667 1717c18,0 32,14 32,32 0,18 -14,32 -32,32 -18,0 -32,-14 -32,-32 0,-18 14,-32 32,-32z"/>
  <g id="_2454588408800">
   <g style="clip-path:url(#id35)">
    <image x="10093" y="2525" width="77" height="77" xlink:href="section about_Images\section about_ImgID36.png"/>
   </g>
  </g>
  <path class="fil1" d="M10131 2531c18,0 32,14 32,32 0,18 -14,32 -32,32 -18,0 -32,-14 -32,-32 0,-18 14,-32 32,-32z"/>
  <g id="_2454580255152">
   <g style="clip-path:url(#id36)">
    <image x="8938" y="1124" width="77" height="77" xlink:href="section about_Images\section about_ImgID37.png"/>
   </g>
  </g>
  <path class="fil1" d="M8976 1131c18,0 32,14 32,32 0,18 -14,32 -32,32 -18,0 -32,-14 -32,-32 0,-18 14,-32 32,-32z"/>
  <g id="_2456607680832">
   <g style="clip-path:url(#id37)">
    <image x="9348" y="1423" width="147" height="147" xlink:href="section about_Images\section about_ImgID38.png"/>
   </g>
  </g>
  <path class="fil1" d="M9422 1436c34,0 61,27 61,61 0,34 -27,61 -61,61 -34,0 -61,-27 -61,-61 0,-34 27,-61 61,-61z"/>
  <g id="_2456607686208">
   <g style="clip-path:url(#id38)">
    <image x="6445" y="452" width="77" height="77" xlink:href="section about_Images\section about_ImgID39.png"/>
   </g>
  </g>
  <path class="fil1" d="M6483 459c18,0 32,14 32,32 0,18 -14,32 -32,32 -18,0 -32,-14 -32,-32 0,-18 14,-32 32,-32z"/>
  <g id="_2456612030000">
   <g style="clip-path:url(#id39)">
    <image x="11684" y="1185" width="147" height="147" xlink:href="section about_Images\section about_ImgID40.png"/>
   </g>
  </g>
  <path class="fil1" d="M11757 1198c34,0 61,27 61,61 0,34 -27,61 -61,61 -34,0 -61,-27 -61,-61 0,-34 27,-61 61,-61z"/>
  <g id="_2456612032304">
   <g style="clip-path:url(#id40)">
    <image x="13092" y="1325" width="147" height="147" xlink:href="section about_Images\section about_ImgID41.png"/>
   </g>
  </g>
  <path class="fil1" d="M13165 1337c34,0 61,27 61,61 0,34 -27,61 -61,61 -34,0 -61,-27 -61,-61 0,-34 27,-61 61,-61z"/>
  <g id="_2456612032208">
   <g style="clip-path:url(#id41)">
    <image x="13377" y="2879" width="147" height="147" xlink:href="section about_Images\section about_ImgID42.png"/>
   </g>
  </g>
  <path class="fil1" d="M13451 2891c34,0 61,27 61,61 0,34 -27,61 -61,61 -34,0 -61,-27 -61,-61 0,-34 27,-61 61,-61z"/>
  <g id="_2454646426000">
   <g style="clip-path:url(#id42)">
    <image x="15240" y="1185" width="147" height="147" xlink:href="section about_Images\section about_ImgID43.png"/>
   </g>
  </g>
  <path class="fil1" d="M15313 1198c34,0 61,27 61,61 0,34 -27,61 -61,61 -34,0 -61,-27 -61,-61 0,-34 27,-61 61,-61z"/>
 </g>
</svg>
