<?xml version="1.0" encoding="UTF-8"?>
<!DOCTYPE svg PUBLIC "-//W3C//DTD SVG 1.1//EN" "http://www.w3.org/Graphics/SVG/1.1/DTD/svg11.dtd">
<!-- Creator: CorelDRAW 2017 -->
<svg xmlns="http://www.w3.org/2000/svg" xml:space="preserve" width="162.56mm" height="91.4398mm" version="1.1" style="shape-rendering:geometricPrecision; text-rendering:geometricPrecision; image-rendering:optimizeQuality; fill-rule:evenodd; clip-rule:evenodd"
viewBox="0 0 16256 9144"
 xmlns:xlink="http://www.w3.org/1999/xlink">
 <defs>
  <style type="text/css">
   <![CDATA[
    .str0 {stroke:#E6D5E2;stroke-width:33.86}
    .str1 {stroke:#E6D5E2;stroke-width:67.73}
    .fil1 {fill:none}
    .fil0 {fill:#080E24}
    .fil2 {fill:#E6D5E2}
   ]]>
      @keyframes floating-up {
        0% {
            transform: translateY(0px);
		}
		50% {
			transform: translateY(60px);
		}
		100% {
			transform: translateY(0px);
		}
	   }
    @keyframes appear {
      	from {
        	opacity: 0 }
      	to {
        	opacity: 1 }
    }
    @keyframes pulse {
        0% { transform: scale(0.9); }
        50% { transform: scale(1.0); }
        100% { transform: scale(0.9); }
    }
    @keyframes pulse1 {
        0% { transform: scale(1); }
        50% { transform: scale(1.1); }
        100% { transform: scale(1); }
    }
    @keyframes fall {
      	0% {
        	transform: translateY(-100); opacity: 1; }
      	20% {
       		transform: translateY(-50px); opacity: 0.9; }
      	40% {
        	transform: translateY(0px); opacity: 0.8; }
      	100% {
        	transform: translateY(30px); opacity: 0.2; } 
    }
    @keyframes rotateshake {
		0% {
			transform: rotate(0deg);
		}
		25% {
			transform: rotate(2deg);
		}
		50% {
			transform: rotate(0deg);
		}
		75%{
			transform: rotate(-2deg);
		}
		100% {
			transform: rotate(0deg);
		}
	}
      @keyframes slideA {
		0% {
			transform: translateX(0px);
		}
		50% {
			transform: translateX(-500px);
		}
		100% {
			transform: translateX(0px);
		}
	}
    #x1{
      animation: floating-up 1s infinite;
    }
    #m6, #m7{
      animation: appear 5s infinite;
    }
    #m11, #m9 {
      animation: appear 1s infinite;
    }
    #m10, #m8, #m12{
      animation: appear 4s infinite;
    }
    #m1, #m2{
      animation: appear 3s infinite;
    }
    #m3, #m4, #m5{
        animation: appear 2s infinite;
    }
    .str0, .t, .t1{
        animation: pulse 10s infinite;
        transform-origin: left;
    }
    .b{
        animation: pulse1 10s 5s infinite;
        transform-origin: left;
    }
    .str1{
        animation: fall 2s infinite;
    }
    .r{
        animation: rotateshake 5s infinite; 
    }
    .c{
      animation: slideA 5s infinite;
    }
       
  </style>
    <clipPath id="id0">
     <path d="M5569 5803l1373 0 0 1103 -1373 0 0 -1103z"/>
    </clipPath>
    <clipPath id="id1">
     <path d="M9350 5598l1487 0 0 1176 -1487 0 0 -1176z"/>
    </clipPath>
    <clipPath id="id2">
     <path d="M1330 6452l1334 0 0 1338 -1334 0 0 -1338z"/>
    </clipPath>
    <clipPath id="id3">
     <path d="M13658 6715l697 0 0 697 -697 0 0 -697z"/>
    </clipPath>
    <clipPath id="id4">
     <path d="M-111 1752l1574 0 0 1330 -1574 0 0 -1330z"/>
    </clipPath>
    <clipPath id="id5">
     <path d="M10435 3015l726 0 0 726 -726 0 0 -726z"/>
    </clipPath>
    <clipPath id="id6">
     <path d="M5656 3975l673 0 0 674 -673 0 0 -674z"/>
    </clipPath>
    <clipPath id="id7">
     <path d="M14754 2032l655 0 0 975 -655 0 0 -975z"/>
    </clipPath>
    <clipPath id="id8">
     <path d="M4841 2184l881 0 0 881 -881 0 0 -881z"/>
    </clipPath>
 </defs>
 <g id="Layer_x0020_1">
  <metadata id="CorelCorpID_0Corel-Layer"/>
  <rect class="fil0" width="16256" height="9144"/>
  <g id="_2454652013664">
   <g style="clip-path:url(#id0)">
    <image x="5569" y="5803" width="1373" height="1103" xlink:href="section prize_Images\section prize_ImgID1.png"/>
   </g>
  </g>
  <g id="_2454652011744">
   <path class="fil1 str0" d="M6498 5949c0,10 2,12 7,17 10,9 31,22 33,42 -14,1 -94,44 -116,55l-712 358c-33,16 -44,8 -14,99 21,62 61,137 99,188 14,19 70,90 88,90 17,0 88,-63 101,-74 89,-77 205,-169 298,-248 5,-4 6,-7 11,-11l94 -80c9,-7 14,-13 24,-20l91 -83c32,-25 121,-125 133,-132 6,9 10,16 17,27 22,36 31,28 46,-5 5,-11 11,-21 17,-33 27,-53 62,-110 98,-158 8,-11 41,-46 6,-63 -15,-7 -30,-3 -45,-2 -32,3 -70,-2 -103,0l-138 15c-15,2 -33,3 -33,20z"/>
   <path class="fil2 t" d="M6011 6358c39,-1 220,-117 259,-140 21,-12 42,-26 62,-37 38,-22 130,-71 165,-85 11,-4 25,-9 32,-18 -10,-15 -19,-5 -67,18 -12,6 -22,11 -33,17l-176 83c-68,34 -167,83 -224,134 -14,12 -22,10 -18,29z"/>
   <path class="fil2 t1" d="M5849 6426c0,18 11,33 34,22 11,-49 -34,-52 -34,-22z"/>
   <path class="fil2 t1" d="M5905 6408c5,7 14,11 22,16l7 -6c15,-18 -8,-48 -28,-10z"/>
   <path class="fil2 t1" d="M5942 6386c0,19 22,13 34,6l0 -16c-8,-2 -34,-10 -34,9z"/>
  </g>
  <g id="_2454652011488">
   <g style="clip-path:url(#id1)">
    <image x="9350" y="5598" width="1487" height="1176" xlink:href="section prize_Images\section prize_ImgID2.png"/>
   </g>
  </g>
  <path class="fil2 b" d="M9927 5727c0,34 -8,55 -8,89l76 0c171,0 350,97 450,172l122 106c14,18 23,25 39,42l134 179c0,48 -72,140 -103,180 -8,10 -13,13 -20,22 -18,22 -148,157 -169,157 -39,0 -31,-25 -70,-91 -10,-17 -19,-33 -27,-49 -9,-17 -18,-31 -28,-48l-93 -136c-49,-64 -88,-106 -147,-158 -15,-13 -25,-23 -41,-35l-90 -62c-16,-10 -32,-18 -49,-28 -17,-10 -35,-15 -52,-24 -6,26 -21,57 -32,82 -20,46 -23,62 -69,62 -31,0 -54,-50 -77,-84l-70 -91c-66,-78 -65,-69 -119,-123 -12,-12 -35,-25 -35,-45 0,-41 45,-49 77,-62 64,-26 338,-120 387,-77 4,3 14,16 14,20zm590 441c-39,-1 -153,-150 -209,-167 -21,-12 -64,-39 -85,-50 -38,-22 -153,-61 -188,-75 -29,-26 19,-34 40,-24 12,6 55,25 66,31l181 74c68,34 146,110 204,161 14,12 17,42 -9,50zm22 22c0,-18 11,-33 34,-22 11,49 -34,52 -34,22zm32 26c5,-7 14,-11 22,-16l7 6c15,18 -8,48 -28,10zm38 40c0,-19 22,-13 34,-6l0 16c-8,2 -34,10 -34,-9z"/>
  <g id="_2454652005792">
   <g style="clip-path:url(#id2)">
    <image x="1330" y="6452" width="1334" height="1338" xlink:href="section prize_Images\section prize_ImgID3.png"/>
   </g>
  </g>
  <path class="fil2 c" d="M1755 7122c0,-110 97,-237 220,-237 112,0 195,37 240,141 126,292 -317,474 -438,192 -8,-18 -22,-76 -22,-96zm228 -559l51 0c123,6 247,54 350,159 54,55 74,78 111,152 111,221 61,484 -119,657 -206,199 -557,199 -762,-4 -140,-139 -171,-259 -171,-447 0,-279 262,-503 541,-516z"/>
  <g id="_2454652006144">
   <g style="clip-path:url(#id3)">
    <image x="13658" y="6715" width="697" height="697" xlink:href="section prize_Images\section prize_ImgID4.png"/>
   </g>
  </g>
  <path class="fil2" d="M13974 6986l-112 -46c-1,-1 -2,-1 -3,-1l-33 -13c-1,-1 -2,-1 -3,-1l-26 -11c-11,-5 -28,-5 -39,-1 -11,4 -18,8 -25,16 -5,5 -9,11 -11,17 -2,5 -3,10 -4,15 -4,21 6,45 24,57 2,2 4,3 6,4 4,2 9,5 13,6 1,1 2,1 3,1l10 4c1,1 2,1 3,1l44 18c3,1 18,8 23,9l7 3c1,0 2,1 3,1l17 7c1,1 2,1 4,1 1,1 2,1 3,1 1,1 2,1 3,1l34 14c1,1 2,1 3,1 1,0 2,1 3,1 2,1 5,2 7,3 0,1 -1,2 -1,3l-28 70c-2,4 -4,9 -6,13 -1,1 -1,2 -1,3l-3 7c-1,1 -1,2 -1,3l-22 53c-1,1 -1,2 -1,3 -1,1 -1,2 -1,3l-3 7c-1,2 -2,4 -3,7 -12,26 -5,57 19,74 1,1 3,2 4,3 4,3 9,5 14,6 5,1 10,2 15,2 16,0 32,-6 43,-17 4,-4 7,-8 10,-12 3,-4 4,-9 6,-13l4 -9c0,-1 0,-1 1,-2l25 -62c3,-8 6,-16 10,-23 1,-2 1,-3 2,-5l28 -69 43 17c4,2 9,4 13,6 6,2 18,8 23,9l13 6c9,4 18,7 26,11 1,1 2,1 3,1l7 3c1,1 2,1 3,1 1,0 2,1 3,1l36 15c4,2 9,4 14,5 5,1 10,1 15,1 13,0 27,-6 37,-14 2,-2 3,-2 4,-4 1,-1 2,-3 4,-4 12,-15 16,-36 10,-55l-3 -7c-2,-4 -4,-8 -7,-12 -5,-6 -11,-11 -17,-15 -4,-2 -6,-3 -10,-5 -1,-1 -2,-1 -3,-1l-107 -44c-6,-2 -17,-7 -22,-9l-37 -15c-1,0 -2,-1 -4,-2 1,-5 6,-13 7,-18 1,-3 4,-10 6,-14l0 -1c0,0 0,0 0,-1l7 -16c1,-2 1,-3 2,-4 0,-1 0,-1 1,-2 2,-4 4,-9 6,-14 0,-1 1,-1 1,-2l8 -20c1,-4 4,-10 6,-13l9 -23c0,-1 0,-1 1,-2l4 -9c0,-1 1,-1 1,-2l3 -7c1,-2 1,-3 2,-5l3 -7c2,-5 4,-9 6,-14 0,-1 1,-1 1,-2 3,-7 4,-16 4,-25 0,-11 -5,-24 -12,-33 -2,-3 -5,-5 -7,-8 -15,-14 -39,-20 -59,-12 -9,4 -16,7 -23,14 -1,1 -2,2 -3,3 -5,5 -9,12 -11,19l-14 34c-1,1 -1,2 -1,3 -1,1 -1,2 -1,4l-20 50c0,1 -1,2 -1,3 -1,2 -2,4 -3,7l-3 7c-1,1 -1,2 -1,3l-14 34c-4,8 -6,16 -10,23 -1,2 -2,5 -3,7z"/>
  <g id="_2454652005056">
   <g style="clip-path:url(#id4)">
    <image x="-111" y="1752" width="1574" height="1330" xlink:href="section prize_Images\section prize_ImgID5.png"/>
   </g>
  </g>
  <g id="_2454652000128">
   <path id="m9" class="fil2" d="M384 2146c121,0 180,-136 117,-222 -4,-5 -7,-9 -11,-15 -14,-17 -43,-34 -65,-41 -7,-2 -14,-4 -22,-5 -54,-8 -114,22 -140,70 -6,11 -12,25 -15,38 -14,66 16,130 72,158 20,10 40,16 65,16z"/>
   <path id="m8" class="fil2" d="M799 2146c106,0 183,-121 116,-222 -10,-16 -25,-29 -41,-39 -10,-7 -25,-13 -37,-16 -7,-2 -14,-3 -22,-5 -16,-2 -35,0 -49,3 -11,2 -19,6 -29,10 -2,1 -3,1 -5,2 -12,7 -26,16 -35,25l-12 14c-4,5 -8,11 -11,16 -22,43 -25,82 -6,128 4,10 13,24 20,33 2,3 3,4 6,7 28,27 59,44 104,44z"/>
   <path id="m7" class="fil2" d="M0 2556c20,-4 37,-11 55,-24 36,-26 59,-69 59,-115 0,-28 -10,-57 -24,-79 -5,-7 -12,-15 -18,-21l-2 -2c-2,-2 -3,-3 -5,-4 -14,-14 -41,-27 -66,-32l0 278z"/>
   <path id="m10" class="fil2" d="M380 2559c25,0 45,-3 66,-13 17,-9 27,-16 41,-29 10,-10 19,-21 25,-35 27,-54 18,-107 -16,-153l-9 -10c-21,-23 -63,-42 -95,-42 -26,0 -45,3 -67,14 -4,2 -7,4 -11,6 -38,23 -63,61 -68,105l-1 17c0,4 1,3 1,7 1,14 1,22 6,37 1,4 3,9 5,13 8,17 16,29 28,42 12,12 24,21 40,29 14,7 36,14 56,14z"/>
   <path id="m6" class="fil2" d="M0 2144c79,-16 129,-94 111,-170 -4,-16 -12,-36 -22,-49 -2,-3 -5,-7 -8,-10 -13,-14 -21,-23 -39,-32 -12,-6 -24,-12 -38,-15l-4 -1 0 277z"/>
   <path id="m11" class="fil2" d="M1207 2559c33,0 62,-8 87,-26 3,-2 7,-5 10,-7 2,-2 3,-3 4,-5 14,-12 26,-28 33,-45 8,-18 12,-35 12,-52l0 -11c-1,-17 -5,-33 -12,-51 -6,-14 -17,-31 -28,-42 -23,-24 -62,-43 -96,-43 -25,0 -44,2 -66,13 -30,15 -52,37 -67,67 -19,38 -18,86 0,124 2,4 4,7 6,11 2,4 4,7 7,10 22,31 64,58 111,58z"/>
   <path id="m2" class="fil2" d="M375 2971c30,0 45,-1 73,-15 12,-6 31,-19 39,-29 3,-3 5,-6 8,-9 52,-67 38,-156 -27,-203 -45,-33 -104,-35 -153,-9 -4,2 -7,4 -10,6 -32,24 -54,55 -60,96 -2,16 -2,31 1,47 2,11 4,18 8,27 5,13 11,22 19,33l14 16c1,1 1,1 3,2 21,20 57,37 85,37z"/>
   <path id="m1" class="fil2" d="M1212 2146c24,0 51,-8 69,-18 4,-2 7,-4 11,-7 8,-5 13,-10 19,-17 6,-6 11,-11 16,-19l10 -17c9,-17 14,-37 15,-56l0 -15c-3,-61 -45,-121 -121,-134 -14,-2 -33,-2 -47,1 -42,8 -80,36 -100,74 -4,8 -8,17 -10,25 -6,23 -5,27 -5,49 0,21 10,49 20,65 28,43 69,68 122,68z"/>
   <path id="m3" class="fil2" d="M795 2559c36,0 69,-11 95,-34 2,-2 3,-3 5,-5l5 -4c6,-7 10,-11 15,-19 28,-42 33,-88 13,-137 -3,-7 -8,-17 -12,-23 -3,-4 -4,-6 -7,-10l-27 -25c-20,-15 -50,-27 -78,-27 -27,0 -45,3 -68,14 -30,15 -55,40 -68,71 -16,39 -16,76 1,114 7,15 18,30 29,41 6,6 12,11 19,16 22,16 51,26 79,26z"/>
   <path id="m4" class="fil2" d="M0 2969c11,-2 22,-6 36,-13 8,-4 15,-8 21,-13l18 -16c11,-15 18,-19 27,-41 29,-68 4,-142 -58,-179 -4,-3 -7,-5 -12,-6 -11,-5 -22,-8 -32,-10l0 278z"/>
   <path id="m5" class="fil2" d="M1203 2971c34,0 53,-3 82,-20 4,-3 7,-4 10,-7 7,-5 12,-10 18,-16 2,-2 2,-2 4,-4 10,-12 16,-19 24,-36 8,-18 12,-36 12,-54l0 -9c-1,-17 -5,-34 -12,-52 -4,-9 -7,-15 -13,-22 -26,-39 -70,-62 -119,-62 -27,0 -47,8 -67,18 -8,4 -23,15 -29,22 -6,6 -11,11 -16,18 -2,3 -5,6 -7,10 -1,2 -2,3 -3,5 -37,67 -13,151 51,190 4,2 7,4 11,6 13,6 35,14 53,14z"/>
   <path id="m12" class="fil2" d="M788 2971c29,0 46,-1 73,-14 15,-8 19,-11 30,-21 8,-7 7,-6 12,-13l24 -36c15,-36 17,-78 0,-114 -15,-31 -37,-56 -69,-71 -82,-38 -176,7 -198,93 -1,4 -2,9 -3,14 -10,72 34,137 100,156 8,2 20,5 30,5z"/>
  </g>
  <g id="_2454652000320">
   <g style="clip-path:url(#id5)">
    <image x="10435" y="3015" width="726" height="726" xlink:href="section prize_Images\section prize_ImgID6.png"/>
   </g>
  </g>
  <path id="x1" class="fil2" d="M10754 3307l-118 -27c-1,0 -2,-1 -3,-1l-35 -8c-1,0 -2,-1 -3,-1l-28 -6c-11,-3 -28,0 -38,6 -10,6 -16,11 -22,20 -4,6 -7,12 -9,19 -1,5 -2,10 -2,15 0,22 13,43 33,53 2,1 4,2 7,3 4,1 10,3 14,4 1,0 2,0 4,1l11 3c2,0 2,0 4,1l46 11c3,0 19,5 25,6l7 2c1,0 2,1 3,1l18 4c2,0 2,0 4,1 1,0 2,1 3,1 1,0 2,0 4,1l35 8c1,0 2,0 4,1 1,0 2,1 3,1 2,1 5,1 7,2 0,1 0,2 -1,3l-17 73c-1,5 -3,9 -3,14 0,1 0,2 -1,4l-2 7c0,1 -1,2 -1,3l-13 56c0,1 0,2 -1,4 0,1 -1,2 -1,3l-2 7c-1,2 -1,4 -2,7 -7,28 4,57 31,70 2,1 3,1 5,2 5,2 9,3 14,4 5,1 10,1 15,0 16,-2 31,-11 40,-24 3,-4 6,-9 8,-14 2,-5 3,-9 4,-14l2 -10c0,-1 0,-1 0,-3l15 -65c2,-8 4,-16 6,-24 1,-2 1,-3 1,-5l17 -73 45 10c4,1 9,3 14,3 6,1 19,5 25,6l14 3c9,2 19,4 28,6 1,0 2,1 3,1l7 2c2,0 2,0 4,1 1,0 2,1 3,1l38 9c5,1 9,2 14,2 5,0 10,0 15,-1 13,-2 25,-11 34,-20 2,-2 2,-3 4,-5 1,-2 2,-3 3,-5 9,-17 10,-38 1,-56l-4 -6c-3,-4 -6,-7 -9,-11 -6,-5 -12,-9 -19,-12 -4,-2 -7,-2 -11,-3 -1,0 -2,-1 -3,-1l-112 -26c-6,-1 -18,-5 -23,-5l-39 -9c-1,0 -3,0 -4,-1 0,-5 4,-14 4,-19 0,-3 3,-11 3,-14l0 -1c0,0 0,0 0,-1l4 -17c0,-2 1,-3 1,-5 0,-1 0,-1 0,-2 1,-5 3,-9 3,-14 0,-1 0,-2 1,-2l5 -21c1,-4 3,-10 3,-14l6 -24c0,-1 0,-1 0,-3l2 -9c0,-1 0,-2 1,-2l2 -7c0,-2 1,-3 1,-5l2 -7c1,-5 3,-9 3,-14 0,-1 0,-2 1,-2 2,-8 2,-17 0,-25 -2,-11 -9,-23 -18,-31 -3,-3 -5,-5 -8,-7 -17,-11 -41,-13 -60,-3 -9,5 -15,10 -20,17 -1,1 -2,2 -2,3 -4,6 -7,13 -8,20l-8 35c0,1 -1,2 -1,3 0,2 0,2 -1,4l-12 53c0,1 -1,2 -1,3 -1,3 -1,5 -2,7l-2 7c0,1 -1,2 -1,3l-8 35c-2,8 -4,17 -6,25 -1,2 -1,5 -2,7z"/>
  <g id="_2454651998784">
   <g style="clip-path:url(#id6)">
    <image x="5656" y="3975" width="673" height="674" xlink:href="section prize_Images\section prize_ImgID7.png"/>
   </g>
  </g>
  <path class="fil2 r" d="M5912 4286l-107 56c-1,1 -2,1 -3,2l-32 17c-1,1 -2,1 -3,2l-25 13c-11,5 -22,18 -25,29 -4,11 -5,19 -4,29 1,7 3,14 6,20 2,5 5,9 9,13 14,17 39,24 59,19 3,-1 5,-1 7,-2 4,-2 10,-4 13,-6 1,-1 2,-1 3,-2l10 -5c1,-1 2,-1 3,-2l42 -22c2,-2 18,-9 22,-12l7 -3c1,-1 2,-1 3,-2l16 -8c1,-1 2,-1 3,-2 1,-1 2,-1 3,-2 1,-1 2,-1 3,-2l32 -17c1,-1 2,-1 3,-2 1,-1 2,-1 3,-2 2,-1 4,-3 7,-3 1,1 1,2 2,3l35 67c2,4 4,9 6,13 1,1 1,2 2,3l3 6c1,1 1,2 2,3l27 51c1,1 1,2 2,3 1,1 1,2 2,3l3 6c1,2 2,4 3,6 12,26 41,41 69,33 2,0 3,-1 5,-1 5,-2 9,-4 13,-7 4,-3 8,-6 12,-10 11,-12 16,-28 15,-44 0,-5 -2,-10 -3,-15 -2,-5 -4,-9 -6,-13l-5 -9c-1,-1 -1,-1 -1,-2l-31 -59c-4,-8 -8,-15 -12,-22 -1,-2 -2,-3 -2,-4l-35 -66 41 -22c4,-2 9,-4 13,-6 6,-3 18,-9 22,-12l13 -7c8,-4 17,-9 25,-13 1,-1 2,-1 3,-2l6 -3c1,-1 2,-1 3,-2 1,-1 2,-1 3,-2l35 -18c4,-2 8,-4 12,-7 4,-3 7,-7 11,-11 8,-10 12,-25 13,-37 0,-2 0,-4 0,-6 0,-2 0,-3 -1,-5 -4,-19 -17,-36 -36,-44l-7 -2c-4,-1 -9,-2 -14,-2 -8,0 -15,1 -23,4 -4,1 -6,3 -10,5 -1,1 -2,1 -3,2l-102 54c-5,3 -17,8 -21,11l-35 19c-1,1 -2,1 -3,2 -3,-4 -6,-13 -9,-17 -2,-3 -5,-10 -7,-13l-1 -1c0,0 0,0 0,-1l-8 -15c-1,-2 -1,-3 -2,-4 -1,-1 -1,-1 -1,-2 -2,-4 -4,-9 -7,-13 -1,-1 -1,-1 -1,-2l-10 -19c-2,-3 -5,-10 -7,-13l-11 -22c-1,-1 -1,-1 -1,-2l-4 -9c0,-1 -1,-1 -1,-2l-3 -7c-1,-2 -2,-3 -2,-4l-3 -6c-2,-4 -4,-9 -7,-13 -1,-1 -1,-1 -1,-2 -4,-7 -10,-14 -16,-19 -9,-7 -21,-11 -34,-12 -4,0 -7,0 -11,1 -20,3 -40,17 -47,37 -3,9 -5,17 -4,26 0,1 0,3 0,4 1,7 3,14 7,21l17 32c1,1 1,2 2,3 1,1 1,2 2,3l25 48c1,1 1,2 2,3 1,2 2,4 3,6l3 6c1,1 1,2 2,3l17 32c4,8 8,15 12,23 1,2 2,5 4,7z"/>
  <g id="_2454651996864">
   <g style="clip-path:url(#id7)">
    <image x="14754" y="2032" width="655" height="975" xlink:href="section prize_Images\section prize_ImgID8.png"/>
   </g>
  </g>
  <g id="_2454651997056">
   <path class="fil2 str1" d="M14843 2150c0,22 3,40 12,58 19,38 56,60 93,79l10 6c10,6 20,11 28,19 1,1 2,2 3,3 1,1 4,4 5,6 10,15 3,33 -10,43 -2,2 -4,3 -6,5 -9,7 -19,12 -29,17 -12,7 -25,13 -37,21 -2,1 -4,3 -6,4l-20 16c-1,1 -2,1 -3,2 -2,2 -3,3 -5,5 -5,5 -10,11 -14,17 -12,17 -20,40 -20,63 0,19 0,31 6,49 3,10 8,19 14,28 14,21 34,36 55,48 17,10 36,19 53,30 13,8 27,18 27,36 0,17 -13,28 -26,36l-27 15c-18,10 -35,19 -51,32 -12,9 -22,20 -30,32 -12,18 -20,40 -20,63 0,7 0,14 3,20 1,1 2,3 3,5 8,11 22,16 35,12 10,-3 18,-11 22,-22 1,-5 1,-7 1,-13 1,-12 5,-23 11,-32 8,-11 20,-19 31,-26l55 -31c12,-8 22,-16 32,-25l6 -8c2,-3 4,-6 6,-9 4,-6 7,-13 9,-20 8,-26 4,-58 -11,-80 -6,-8 -12,-15 -20,-22 -14,-13 -34,-24 -51,-33 -21,-11 -46,-24 -60,-44 -6,-8 -9,-20 -9,-34 0,-46 42,-62 76,-81 2,-1 5,-3 7,-4 24,-13 54,-35 65,-61 7,-16 8,-26 8,-43 0,-20 -9,-40 -20,-53 -2,-3 -4,-4 -6,-7 -1,-2 -5,-5 -6,-6l-14 -11c-11,-8 -23,-15 -35,-21l-20 -11c-3,-2 -5,-3 -8,-5 -5,-3 -10,-6 -15,-10 -39,-28 -28,-49 -33,-66 -4,-11 -15,-21 -28,-21 -10,0 -18,2 -24,9l-3 4c-3,5 -6,10 -6,16z"/>
   <path class="fil2 str1" d="M15103 2149c0,23 3,38 12,58 3,7 8,13 12,19 7,9 15,16 23,24 11,10 27,19 41,27l27 15c17,10 40,21 40,43 0,7 -2,12 -4,16 -5,9 -14,14 -22,20 -4,3 -9,5 -13,8l-20 11c-15,8 -31,18 -45,28 -2,2 -4,3 -6,5 -26,20 -45,57 -45,91 0,17 1,31 6,46 4,12 9,22 16,31 8,11 12,15 22,24 9,9 26,19 37,25l13 7c15,8 32,16 45,28 9,7 15,15 15,27 0,7 -2,12 -4,16 -3,4 -6,8 -10,11 -8,6 -17,12 -25,16l-10 6c-41,21 -83,47 -99,94 -5,14 -6,27 -6,43 0,22 28,39 50,24 5,-4 10,-10 12,-17 3,-11 -2,-26 12,-45 16,-22 45,-33 68,-47 12,-7 24,-14 35,-22 1,-1 2,-2 4,-3 9,-7 17,-17 24,-27 4,-6 7,-12 9,-20 5,-16 6,-36 2,-52 -4,-16 -12,-28 -22,-41 -2,-3 -5,-6 -8,-8l-8 -7c-2,-2 -4,-3 -6,-4l-32 -20c-1,-1 -2,-1 -3,-2 -18,-11 -39,-20 -54,-35 -12,-12 -19,-24 -19,-44 0,-25 11,-40 29,-54 10,-8 21,-13 32,-20l13 -7c7,-4 14,-7 20,-11 8,-5 17,-11 24,-17 8,-7 14,-13 20,-22 9,-13 16,-29 16,-47 0,-20 -2,-32 -10,-49 -3,-5 -6,-10 -10,-15 -1,-2 -1,-2 -3,-3 -1,-1 -2,-2 -3,-3l-13 -12c-3,-2 -5,-4 -7,-5 -10,-7 -20,-13 -30,-19l-12 -7c-21,-12 -46,-23 -59,-46 -13,-22 0,-39 -19,-55 -9,-7 -23,-9 -34,-4 -6,3 -11,8 -14,14 -1,2 -3,8 -3,11z"/>
  </g>
  <g id="_2454651995392">
   <g style="clip-path:url(#id8)">
    <image x="4841" y="2184" width="881" height="881" xlink:href="section prize_Images\section prize_ImgID9.png"/>
   </g>
  </g>
  <g id="_2454651994848">
   <path class="fil2" d="M4922 2693l0 -1c0,0 1,1 1,1 1,1 1,1 2,1l99 0c1,-2 0,-3 -1,-5 0,-2 -1,-3 -1,-5 -3,-14 -5,-28 -6,-43 0,-2 0,-3 0,-6l0 -24c0,-7 2,-21 3,-28 3,-20 8,-39 15,-58 3,-8 7,-17 11,-25 1,-3 3,-5 4,-8l14 -23c1,-1 2,-2 2,-3l5 -7c1,-1 2,-2 3,-4l26 -28 30 -24c5,-3 10,-7 15,-10l12 -7c2,-1 2,-1 4,-2 11,-6 23,-11 34,-15 35,-12 58,-14 95,-14 4,0 8,0 12,1 3,0 7,1 11,1 19,3 33,5 50,11 3,1 6,2 9,3l26 11c3,1 6,3 8,4 3,1 5,3 8,4 10,6 20,12 29,19l17 14c1,1 1,1 2,2 9,8 20,20 28,30 12,15 23,31 31,48 6,11 11,23 14,34 6,19 11,40 13,61 1,10 1,19 1,29l-1 18c-1,7 -1,14 -3,21 -2,13 -5,27 -10,39 -2,6 -4,12 -7,18l-9 21c-3,5 -6,11 -9,16 -1,1 -2,3 -2,4l-5 7c-3,5 -7,10 -10,14l-8 10c-5,7 -11,13 -18,19 -5,5 -11,10 -16,14l-7 5c-5,4 -9,7 -14,10 -3,2 -5,3 -7,5 -1,1 -2,1 -4,2 -10,6 -26,15 -37,19l1 0c2,1 -2,0 1,0 0,0 2,0 3,0l79 0c28,0 57,0 85,0 1,0 3,-2 4,-3l17 -20c5,-6 14,-19 18,-26l11 -18c1,-1 2,-3 3,-5l10 -19c1,-2 1,-3 2,-5 6,-12 16,-41 20,-54 2,-8 4,-15 6,-24 5,-23 7,-45 8,-70l0 -11 -2 -27c-1,-16 -7,-47 -11,-62 -1,-4 -2,-8 -3,-12 -6,-20 -9,-26 -16,-43 -3,-7 -9,-17 -12,-24 -4,-8 -15,-25 -20,-32 -2,-3 -4,-6 -6,-9 -4,-6 -8,-11 -13,-17l-10 -12c-1,-1 -1,-1 -2,-2l-28 -27c-1,-1 -1,-1 -2,-2 -1,-1 -1,-1 -2,-2 -5,-5 -15,-12 -20,-16 -12,-9 -26,-19 -40,-26l-34 -17 -21 -8c-2,-1 -4,-2 -6,-1 -1,0 0,0 -1,0l-43 0c-4,0 -7,0 -11,0 -4,0 -8,0 -11,0 -1,0 -22,1 -23,-1 0,0 0,0 0,0 0,0 0,0 0,0l0 -2c0,-2 0,-14 0,-15l-1 -1c-3,0 -9,0 -12,-1 -5,-1 -32,0 -38,0 -10,0 -38,4 -47,6 -16,3 -36,8 -52,14l-29 11c-3,1 -6,3 -9,4 -9,5 -16,8 -26,14 -17,10 -24,14 -39,26 -1,1 -2,2 -4,3 -4,3 -18,14 -21,18 -1,1 -2,2 -4,3 -3,3 -14,14 -18,18 -1,1 -1,1 -2,2 -3,3 -16,18 -18,21 -1,1 -2,2 -3,4 -14,18 -18,26 -29,44l-7 13c-20,40 -34,82 -38,127 -1,12 -2,18 -2,31 0,2 0,3 0,6l0 1c0,9 1,17 1,25 0,7 4,41 6,47z"/>
   <path class="fil2" d="M4922 2693c0,6 8,33 10,39 1,4 3,9 4,13l9 24c3,8 7,15 10,22 10,20 22,38 35,55 5,7 11,14 16,20l4 4c5,5 9,9 14,15 6,5 11,11 17,16l16 13c1,1 1,1 2,2l24 17c7,5 13,8 20,12l16 9c15,7 30,14 46,19 29,9 49,14 81,17l15 1c3,0 5,0 8,0 14,1 26,0 39,-1 13,-1 16,-1 29,-3l27 -5c27,-7 37,-10 61,-20 8,-3 15,-7 22,-11 10,-5 17,-9 26,-15 13,-8 32,-22 43,-31 3,-3 6,-5 9,-7 1,-1 1,-1 2,-2l7 -6c2,-2 7,-6 8,-8 2,-2 7,-7 8,-9 -28,0 -57,0 -85,0l-79 0c-1,0 -2,0 -3,0 -3,-1 1,1 -1,0l-1 0c-23,10 -46,15 -71,18 -10,1 -24,2 -34,2 -9,0 -24,-2 -33,-3 -6,-1 -10,-2 -16,-3 -10,-2 -19,-5 -29,-7 -7,-2 -19,-7 -26,-10l-18 -9c-19,-10 -46,-30 -62,-46 -1,-1 -1,-1 -2,-2 -1,-1 -1,-2 -2,-3l-7 -7c-1,-1 -1,-2 -2,-3l-12 -15c-1,-2 -3,-3 -4,-5 -7,-10 -15,-23 -21,-34 -1,-2 -2,-4 -3,-6l-8 -19c-3,-8 -6,-16 -8,-24 -1,-4 -1,-3 -2,-4l-99 0c-1,0 -1,0 -2,-1 0,0 -1,-1 -1,-1l0 1z"/>
   <path class="fil2" d="M5401 2277c-1,-1 0,0 -1,-1l-4 -1c-25,-8 -59,-16 -86,-17l1 1c1,1 0,13 0,15l0 2c0,0 0,0 0,0 0,0 0,0 0,0 0,2 22,1 23,1 4,0 8,0 11,0 4,0 7,0 11,0l43 0c1,0 1,0 1,0z"/>
  </g>
 </g>
</svg>
